<?xml version="1.0" standalone="no"?>
<!DOCTYPE svg PUBLIC "-//W3C//DTD SVG 20010904//EN"
 "http://www.w3.org/TR/2001/REC-SVG-20010904/DTD/svg10.dtd">
<svg version="1.0" xmlns="http://www.w3.org/2000/svg"
 width="243.000000pt" height="243.000000pt" viewBox="0 0 243.000000 243.000000"
 preserveAspectRatio="xMidYMid meet">
<metadata>
Created by potrace 1.14, written by Peter Selinger 2001-2017
</metadata>
<g transform="translate(0.000000,243.000000) scale(0.100000,-0.100000)"
fill="#000000" stroke="none">
<path d="M268 2172 c-35 -3 -43 -11 -39 -36 1 -5 -8 -19 -20 -32 -12 -13 -18
-24 -13 -24 5 0 3 -4 -5 -9 -11 -7 -14 -38 -13 -143 1 -73 3 -151 6 -173 7
-51 48 -185 55 -180 7 4 81 -150 85 -179 1 -6 5 -17 10 -24 4 -7 5 -16 2 -19
-12 -12 83 -123 106 -123 6 0 5 -6 -2 -15 -10 -12 -10 -15 1 -15 9 0 10 -3 4
-8 -25 -17 7 -113 55 -165 79 -87 123 -122 153 -123 18 -1 38 -2 44 -3 15 -1
74 -101 67 -112 -3 -5 -11 -6 -19 -2 -10 3 -15 -1 -15 -13 0 -11 -13 -31 -28
-46 -16 -15 -29 -33 -30 -40 -2 -26 -15 -64 -40 -118 -8 -19 -16 -37 -16 -40
-2 -15 -64 -128 -78 -144 -10 -11 -18 -24 -18 -28 0 -5 -12 -20 -26 -33 -15
-14 -23 -25 -19 -25 4 0 2 -6 -4 -14 -9 -11 119 -13 799 -13 l810 0 -1 243 c0
195 -3 245 -14 254 -8 6 -19 9 -24 6 -5 -4 -12 -2 -16 4 -4 6 -11 8 -16 5 -5
-4 -14 -3 -21 1 -7 4 -24 8 -38 8 -14 1 -30 4 -37 9 -6 4 -18 4 -27 1 -9 -3
-22 -2 -29 3 -6 5 -19 9 -27 8 -8 -1 -27 2 -41 6 -16 4 -32 2 -38 -4 -8 -8
-11 -8 -11 1 0 7 -3 11 -7 10 -15 -5 -164 73 -158 82 3 6 2 10 -3 10 -6 0 -8
9 -5 20 3 11 0 20 -6 20 -6 0 -16 11 -21 25 -5 14 -14 25 -20 25 -16 0 -13
311 3 335 8 11 13 36 12 55 -2 19 -4 77 -5 128 -3 103 -19 148 -69 192 -26 24
-28 30 -29 109 -1 45 -6 89 -12 96 -8 9 -6 17 5 29 10 9 12 16 5 16 -6 0 -8 5
-5 10 4 6 -1 23 -11 38 -10 15 -17 32 -15 37 7 22 1 79 -10 85 -6 4 -10 11
-10 16 1 5 -7 9 -18 10 -11 1 -26 4 -34 7 -7 3 -20 1 -27 -3 -8 -5 -18 -6 -22
-4 -14 9 -498 10 -498 1 0 -4 -8 -4 -17 1 -16 7 -41 8 -68 2 -5 -1 -13 -1 -17
0 -9 2 -135 2 -145 0 -8 -2 -112 0 -188 3 -22 1 -57 1 -77 -1z"/>
</g>
</svg>
